<?xml version="1.0" encoding="UTF-8" standalone="no"?>
<!-- Created with Inkscape (http://www.inkscape.org/) -->
<svg xmlns:rdf="http://www.w3.org/1999/02/22-rdf-syntax-ns#" xmlns="http://www.w3.org/2000/svg" version="1.1" xmlns:cc="http://creativecommons.org/ns#" xmlns:dc="http://purl.org/dc/elements/1.1/" viewBox="0 0 1266.5 420.24">
<metadata>
<rdf:RDF>
<cc:Work rdf:about="">
<dc:format>image/svg+xml</dc:format>
<dc:type rdf:resource="http://purl.org/dc/dcmitype/StillImage"/>
<dc:title/>
</cc:Work>
</rdf:RDF>
</metadata>
<g transform="translate(256.2687,-322.2418)">
<g fill-opacity="0.40392157" fill="#ae9393" transform="translate(-3588.6998,6880.0146)">
<path d="m4136.8-6531.5,0.3437,111.75c0.3741,125.19-0.1264,116.82,7.7813,132.84,9.5902,19.434,26.086,32.891,47.031,38.375,9.1378,2.3927,25.452,2.6267,35.344,0.5312,7.7219-1.6358,19.974-7.5006,27.969-13.406,13.558-10.016,24.816-28.023,28.188-45.063,3.2033-16.191,0.1752-38.671-7.2188-53.312-7.5876-15.025-17.504-24.439-31.875-30.25-5.9964-2.4249-8.4338-2.8172-17-2.875-8.5456-0.058-14.51,2.9567-18.188,4.75-5.8272,2.8419-8.3392,5.118-17.281,12.75,0,0,9.2526,14.092,14.063,20.531,0,0,8.9856-8.3719,19.781-8.4062,13.12,0.9782,15.648,5.5749,20.219,10.469,7.3733,6.6613,11.906,19.128,11.906,32.625,0,19.03-10.582,35.1-28.531,43.344-7.6607,3.5185-20.346,4.4159-28.656,2-15.473-4.498-28.276-16.841-32.906-31.719-1.8105-5.8182,0-10.946-1.9062-115.5v-109.44h-14.531zm312.06,0,0,123.97c0,88.623,0.3453,125.46,1.1562,129.25,1.4936,6.979,5.1602,14.659,9.4376,19.656,3.4471,4.0274,15.428,11.156,17.219,11.156,3.8887,1.1722,5.9624,1.6493,12.188,0.4688,0-21.685-0.1562-9.6187-0.1562-26-7.3703-2.2014-10.605-8.1328-10.875-10.156l-0.4688-3.3438-0.25-122.25-0.2812-122.75h-13.969zm-723.22,136.81c-0.7272,0.019-1.4478,0.5313-2.6562,1.1563-4.7119,2.4364-13.45,10.956-16.406,16-3.4628,5.9086-5.5391,14.544-5.5,22.906,0.055,11.791,2.492,16.776,18.844,38.531,9.3173,12.396,11.442,16.915,11.469,24.5,0.023,6.6455-1.0867,9.4217-5.6874,14.281-7.4663,7.8863-20.767,7.3642-32.844-1.3125l-4.8125-3.4375v14.031,14.062l5.4375,2.4688c2.9846,1.3663,7.372,2.8756,9.75,3.3438,2.3781,0.4677,8.9147,0.9087,14.531,0.9687,8.0363,0.086,11.339-0.3139,15.5-1.9063,19.342-7.4024,29.911-27.625,25.813-49.344-1.5046-7.9735-6.7374-17.521-17.813-32.438-9.3599-12.606-11.046-15.64-11.875-21.688-1.0259-7.4847,3.1544-15.311,11.094-20.875,1.8157-1.2724,1.5416-1.8215-4.9375-10.25-6.7029-8.72-8.3062-11.042-9.9062-11zm812.91,0.5936c-0.7272,0.019-1.4478,0.5314-2.6563,1.1564-4.7118,2.4366-13.45,10.956-16.406,16-3.4628,5.9087-5.539,14.544-5.5,22.906,0.055,11.791,2.492,16.776,18.844,38.531,9.3173,12.396,11.442,16.915,11.469,24.5,0.023,6.6453-1.0867,9.4217-5.6875,14.281-7.4662,7.8866-20.767,7.3642-32.844-1.3123l-4.8124-3.4377v14.031,14.062l5.4374,2.4688c2.9846,1.3663,7.3721,2.8756,9.75,3.3437,2.3781,0.4678,8.9147,0.9088,14.531,0.9687,8.0362,0.086,11.339-0.3138,15.5-1.9062,19.342-7.4025,29.91-27.625,25.812-49.344-1.5045-7.9735-6.7373-17.52-17.812-32.437-9.36-12.606-11.046-15.64-11.875-21.688-1.0259-7.4844,3.1543-15.311,11.094-20.875,1.8158-1.2722,1.5417-1.8212-4.9374-10.25-6.703-8.7199-8.3064-11.042-9.9063-11zm-172.09,1.3127c-11.997,0.056-24.195,2.9483-34.844,8.5312-9.5701,5.0176-22.215,16.987-27.5,26-18.548,31.632-13.388,68.752,12.938,93.125,8.1362,7.5328,21.92,14.915,31.969,17.094,9.8204,2.1292,26.12,1.9133,35.313-0.4376,12.524-3.2029,22.807-9.1732,32.719-19,14.105-13.983,20.679-28.523,21.656-48.031,0.8523-17.013-2.9842-31.013-12.375-45.188-8.5826-12.956-24.063-24.528-38.875-29.094-6.6728-2.0566-13.802-3.0335-21-3zm-297.03,0.031c-5.4826-0.02-10.834,0.6991-15.438,2.25-11.441,3.8542-20.553,11.254-26.594,21.562-2.4886,4.2466-2.9384,4.5854-3.875,2.9688-8.9899-15.517-22.422-24.548-39.187-26.344-16.292-1.7456-26.875,2.2625-37.156,12.5-3.2138,3.2-6.568,6.9375-7.4687,8.3125-1.5744,2.4033-1.6365,2.1037-1.6876-7.75l-0.062-10.25h-14-14v70,70h14,14v-40.531c0-45.577,0.4701-49.874,6.625-60.125,4.5218-7.532,7.404-10.486,13.344-13.719,13.562-7.3813,28.832-4.4394,36.969,6.625,6.3601,8.6483,6.4646,9.4325,6.8438,61l0.3438,46.75h13.937,13.938l0.031-40.25c-2.1689-44.024,0.5341-49.394,5.6875-59,7.5691-14.109,19.23-21.276,33.719-18.688,11.025,1.9693,17.561,7.4109,21.844,18.156,1.9535,4.901,2.1376,7.8179,2.6875,38.281,0.5506,30.496,0.7886,33.454,2.7813,38.812,4.0464,10.884,13.188,20.621,22.75,24.188,2.9569,1.1033,4.2959,1.3987,13.25,1.1562,0-25.759-0.063-11.574-0.063-27-4.1621-1.7391-8.301-6.67-9.625-11.437-0.5979-2.1529-1.0624-15.617-1.0624-32-0.01-31.454-0.8264-37.863-6.25-48.656-3.5812-7.1262-13.2-16.986-20.313-20.781-7.2879-3.8889-16.831-5.9972-25.969-6.0313zm-297.47,3.25,0,48.469c0,31.268,0.3857,50.33,1.0937,53.75,5.5052,26.594,31.651,45.126,57.906,41.062,10.998-1.7023,19.156-6.0912,27.687-14.875l7.3126-7.5313v24.313c0,27.748-1.0563,35.031-6.2188,43.625-1.796,2.9899-5.3063,7.2248-7.7812,9.4375-4.6305,4.1397-17.154,8.733-20.25,8.75-0.9626,0.01-1.75,0.4064-1.75,0.875,0,0.8528,12.514,21.554,13.562,23.25,0.7137,1.1545,0.9467,1.1286,7.0626-0.5,17.882-4.7611,33.828-21.345,40.312-41.969l2.5626-8.1562,0.2812-90.25,0.2812-90.25h-13.937-13.969l-0.4062,42.25c1.6476,43.912-0.5845,45.469-5.0626,55.75-4.1264,9.4745-11.978,16.542-21.625,19.406-16.616,4.9345-31.584-2.6309-36.844-18.656-2.1663-6.5995-2.2187-7.9355-2.2187-52.75v-46h-14zm592.47,21.594c7.0827-0.029,9.8604,0.4483,14.438,1.7811,23.446,8.2822,30.394,23.424,33.688,32.906,0.1719,0.1718,0.8726,3.5747,1.5313,7.5626,4.1095,24.885-14.525,50.017-40.125,54.125,0,0-8.5355,1.1551-15,0.031-28.402-4.9371-46.235-32.073-39.063-59.406,2.4098-9.1824,5.6561-15.166,11.844-21.781,7.6427-8.1708,17.952-13.488,29.375-15.188,1.2053-0.023,2.3007-0.027,3.3125-0.031z"/>
<path d="m4523.8,618.88,0,294.28,321.5,0,0-294.28-321.5,0zm79.094,73.094c14.818-0.0189,24.443,2.0362,36.188,7.6875,16.289,7.838,27.717,21.782,32.531,39.781,2.5529,9.544,3.0488,27.474,1.0624,37.531-2.179,11.031-12.018,31.283-20.969,43.094-12.145,16.026-28.918,32.151-45.969,44.25l-5.8126,4.125,8.8126,0.65625c6.119,0.4523,12.227,1.7812,19.844,4.3125,18.245,6.0627,31.243,5.7654,44.656-1.0312,2.6334-1.3345,5.0192-2.4375,5.3124-2.4375,0.2934,0,0.5313,6.274,0.5313,13.906v13.875l-5.125,2.1875c-8.485,3.65-18.335,5.2812-28.875,4.7812-8.226-0.3902-11.712-1.1878-26-6.0312-26.029-8.8239-36.385-8.6675-55.094,0.9375-5.169,2.6539-9.6986,4.9838-10.063,5.1562-0.3638,0.172-3.6309-5.233-7.25-12-6.0734-11.357-6.42-12.398-4.8124-13.594,0.958-0.713,7.945-5.3286,15.531-10.25,53.662-34.812,84.77-70.613,88.219-101.5,1.5-13.436-3.45-29.455-11.688-37.688-12.023-12.016-36.325-15.28-52.281-7.0312-13.546,7.003-21.212,21.243-20.344,37.781,0.539,10.272,2.86,18.752,10.719,23.75l4.8438,4.3438-8.125,10.156c-4.4746,5.5898-8.5641,10.166-9.0626,10.188-0.4984,0.0209-4.546-3.6812-9-8.2188-13.025-13.27-17.875-24.85-17.875-42.75,0-25.742,13.878-47.421,37.781-59.031,10.777-5.2351,18.698-6.9195,32.312-6.9375zm157.94,0.125c0.7771-0.015,1.5631-0.01,2.3437,0,5.7641,0.0762,11.605,0.8508,17.406,2.375,16.491,4.332,32.546,16.83,39.25,30.562,10.464,21.437,2.9613,46.162-17.594,57.938-3.3474,1.9178-6.109,3.7862-6.125,4.1562-0.016,0.3696,1.6561,1.2324,3.7187,1.9062,11.937,3.8999,26.149,16.024,31.625,26.969,5.8432,11.68,7.1858,29.377,3.1875,42.25-6.217,20.016-24.212,36.582-46.719,43.031-10.312,2.9552-26.942,4.3682-35.844,3.0312-25.242-3.791-43.38-13.726-54.219-29.688-11.484-16.91-13.754-39.659-5.6563-56.781,5.0481-10.675,22.441-25.991,32.312-28.469,4.1245-1.0352,3.9417-2.186-0.6562-4.5312-6.339-3.2329-16.922-14.386-20.344-21.406-2.7382-5.6191-2.9375-6.7444-2.9375-18.031,0-11.93,0.037-12.144,3.7813-19.719,10.149-20.536,32.377-33.128,56.469-33.594zm0,23.812c-8.4074,0.2396-16.594,3.3978-23.125,9.2188-12.52,11.159-13.77,26.751-3.0937,38.625,9.842,10.946,26.223,14.547,41.125,9.0312,25.792-9.5471,27.394-40.822,2.7187-52.969-5.1171-2.519-10.542-3.8102-15.938-3.9062-0.5619-0.01-1.1271-0.016-1.6875,0zm1.7187,85.062c-14.316-0.022-27.03,4.8943-36.344,14.062-7.583,7.464-9.625,12.492-9.625,23.906,0,11.461,2.0186,16.396,9.9063,24.375,11.983,12.123,31.275,17.384,47.969,13.062,9.6779-2.5052,16.666-6.3368,22.75-12.406,9.4178-9.396,12.877-19.274,10.75-30.781-1.4379-7.7759-4.1916-12.746-10.438-18.844-9.044-8.8295-20.879-13.354-34.969-13.375z" transform="translate(-1171.3501,-7150.6508)"/>
</g>
<g transform="translate(-3583.6988,6875.0176)" fill="#FFF">
<path d="m4136.8-6531.5,0.3437,111.75c0.3741,125.19-0.1264,116.82,7.7813,132.84,9.5902,19.434,26.086,32.891,47.031,38.375,9.1378,2.3927,25.452,2.6267,35.344,0.5312,7.7219-1.6358,19.974-7.5006,27.969-13.406,13.558-10.016,24.816-28.023,28.188-45.063,3.2033-16.191,0.1752-38.671-7.2188-53.312-7.5876-15.025-17.504-24.439-31.875-30.25-5.9964-2.4249-8.4338-2.8172-17-2.875-8.5456-0.058-14.51,2.9567-18.188,4.75-5.8272,2.8419-8.3392,5.118-17.281,12.75,0,0,9.2526,14.092,14.063,20.531,0,0,8.9856-8.3719,19.781-8.4062,13.12,0.9782,15.648,5.5749,20.219,10.469,7.3733,6.6613,11.906,19.128,11.906,32.625,0,19.03-10.582,35.1-28.531,43.344-7.6607,3.5185-20.346,4.4159-28.656,2-15.473-4.498-28.276-16.841-32.906-31.719-1.8105-5.8182,0-10.946-1.9062-115.5v-109.44h-14.531zm312.06,0,0,123.97c0,88.623,0.3453,125.46,1.1562,129.25,1.4936,6.979,5.1602,14.659,9.4376,19.656,3.4471,4.0274,15.428,11.156,17.219,11.156,3.8887,1.1722,5.9624,1.6493,12.188,0.4688,0-21.685-0.1562-9.6187-0.1562-26-7.3703-2.2014-10.605-8.1328-10.875-10.156l-0.4688-3.3438-0.25-122.25-0.2812-122.75h-13.969zm-723.22,136.81c-0.7272,0.019-1.4478,0.5313-2.6562,1.1563-4.7119,2.4364-13.45,10.956-16.406,16-3.4628,5.9086-5.5391,14.544-5.5,22.906,0.055,11.791,2.492,16.776,18.844,38.531,9.3173,12.396,11.442,16.915,11.469,24.5,0.023,6.6455-1.0867,9.4217-5.6874,14.281-7.4663,7.8863-20.767,7.3642-32.844-1.3125l-4.8125-3.4375v14.031,14.062l5.4375,2.4688c2.9846,1.3663,7.372,2.8756,9.75,3.3438,2.3781,0.4677,8.9147,0.9087,14.531,0.9687,8.0363,0.086,11.339-0.3139,15.5-1.9063,19.342-7.4024,29.911-27.625,25.813-49.344-1.5046-7.9735-6.7374-17.521-17.813-32.438-9.3599-12.606-11.046-15.64-11.875-21.688-1.0259-7.4847,3.1544-15.311,11.094-20.875,1.8157-1.2724,1.5416-1.8215-4.9375-10.25-6.7029-8.72-8.3062-11.042-9.9062-11zm812.91,0.5936c-0.7272,0.019-1.4478,0.5314-2.6563,1.1564-4.7118,2.4366-13.45,10.956-16.406,16-3.4628,5.9087-5.539,14.544-5.5,22.906,0.055,11.791,2.492,16.776,18.844,38.531,9.3173,12.396,11.442,16.915,11.469,24.5,0.023,6.6453-1.0867,9.4217-5.6875,14.281-7.4662,7.8866-20.767,7.3642-32.844-1.3123l-4.8124-3.4377v14.031,14.062l5.4374,2.4688c2.9846,1.3663,7.3721,2.8756,9.75,3.3437,2.3781,0.4678,8.9147,0.9088,14.531,0.9687,8.0362,0.086,11.339-0.3138,15.5-1.9062,19.342-7.4025,29.91-27.625,25.812-49.344-1.5045-7.9735-6.7373-17.52-17.812-32.437-9.36-12.606-11.046-15.64-11.875-21.688-1.0259-7.4844,3.1543-15.311,11.094-20.875,1.8158-1.2722,1.5417-1.8212-4.9374-10.25-6.703-8.7199-8.3064-11.042-9.9063-11zm-172.09,1.3127c-11.997,0.056-24.195,2.9483-34.844,8.5312-9.5701,5.0176-22.215,16.987-27.5,26-18.548,31.632-13.388,68.752,12.938,93.125,8.1362,7.5328,21.92,14.915,31.969,17.094,9.8204,2.1292,26.12,1.9133,35.313-0.4376,12.524-3.2029,22.807-9.1732,32.719-19,14.105-13.983,20.679-28.523,21.656-48.031,0.8523-17.013-2.9842-31.013-12.375-45.188-8.5826-12.956-24.063-24.528-38.875-29.094-6.6728-2.0566-13.802-3.0335-21-3zm-297.03,0.031c-5.4826-0.02-10.834,0.6991-15.438,2.25-11.441,3.8542-20.553,11.254-26.594,21.562-2.4886,4.2466-2.9384,4.5854-3.875,2.9688-8.9899-15.517-22.422-24.548-39.187-26.344-16.292-1.7456-26.875,2.2625-37.156,12.5-3.2138,3.2-6.568,6.9375-7.4687,8.3125-1.5744,2.4033-1.6365,2.1037-1.6876-7.75l-0.062-10.25h-14-14v70,70h14,14v-40.531c0-45.577,0.4701-49.874,6.625-60.125,4.5218-7.532,7.404-10.486,13.344-13.719,13.562-7.3813,28.832-4.4394,36.969,6.625,6.3601,8.6483,6.4646,9.4325,6.8438,61l0.3438,46.75h13.937,13.938l0.031-40.25c-2.1689-44.024,0.5341-49.394,5.6875-59,7.5691-14.109,19.23-21.276,33.719-18.688,11.025,1.9693,17.561,7.4109,21.844,18.156,1.9535,4.901,2.1376,7.8179,2.6875,38.281,0.5506,30.496,0.7886,33.454,2.7813,38.812,4.0464,10.884,13.188,20.621,22.75,24.188,2.9569,1.1033,4.2959,1.3987,13.25,1.1562,0-25.759-0.063-11.574-0.063-27-4.1621-1.7391-8.301-6.67-9.625-11.437-0.5979-2.1529-1.0624-15.617-1.0624-32-0.01-31.454-0.8264-37.863-6.25-48.656-3.5812-7.1262-13.2-16.986-20.313-20.781-7.2879-3.8889-16.831-5.9972-25.969-6.0313zm-297.47,3.25,0,48.469c0,31.268,0.3857,50.33,1.0937,53.75,5.5052,26.594,31.651,45.126,57.906,41.062,10.998-1.7023,19.156-6.0912,27.687-14.875l7.3126-7.5313v24.313c0,27.748-1.0563,35.031-6.2188,43.625-1.796,2.9899-5.3063,7.2248-7.7812,9.4375-4.6305,4.1397-17.154,8.733-20.25,8.75-0.9626,0.01-1.75,0.4064-1.75,0.875,0,0.8528,12.514,21.554,13.562,23.25,0.7137,1.1545,0.9467,1.1286,7.0626-0.5,17.882-4.7611,33.828-21.345,40.312-41.969l2.5626-8.1562,0.2812-90.25,0.2812-90.25h-13.937-13.969l-0.4062,42.25c1.6476,43.912-0.5845,45.469-5.0626,55.75-4.1264,9.4745-11.978,16.542-21.625,19.406-16.616,4.9345-31.584-2.6309-36.844-18.656-2.1663-6.5995-2.2187-7.9355-2.2187-52.75v-46h-14zm592.47,21.594c7.0827-0.029,9.8604,0.4483,14.438,1.7811,23.446,8.2822,30.394,23.424,33.688,32.906,0.1719,0.1718,0.8726,3.5747,1.5313,7.5626,4.1095,24.885-14.525,50.017-40.125,54.125,0,0-8.5355,1.1551-15,0.031-28.402-4.9371-46.235-32.073-39.063-59.406,2.4098-9.1824,5.6561-15.166,11.844-21.781,7.6427-8.1708,17.952-13.488,29.375-15.188,1.2053-0.023,2.3007-0.027,3.3125-0.031z"/>
<path d="m4523.8,618.88,0,294.28,321.5,0,0-294.28-321.5,0zm79.094,73.094c14.818-0.0189,24.443,2.0362,36.188,7.6875,16.289,7.838,27.717,21.782,32.531,39.781,2.5529,9.544,3.0488,27.474,1.0624,37.531-2.179,11.031-12.018,31.283-20.969,43.094-12.145,16.026-28.918,32.151-45.969,44.25l-5.8126,4.125,8.8126,0.65625c6.119,0.4523,12.227,1.7812,19.844,4.3125,18.245,6.0627,31.243,5.7654,44.656-1.0312,2.6334-1.3345,5.0192-2.4375,5.3124-2.4375,0.2934,0,0.5313,6.274,0.5313,13.906v13.875l-5.125,2.1875c-8.485,3.65-18.335,5.2812-28.875,4.7812-8.226-0.3902-11.712-1.1878-26-6.0312-26.029-8.8239-36.385-8.6675-55.094,0.9375-5.169,2.6539-9.6986,4.9838-10.063,5.1562-0.3638,0.172-3.6309-5.233-7.25-12-6.0734-11.357-6.42-12.398-4.8124-13.594,0.958-0.713,7.945-5.3286,15.531-10.25,53.662-34.812,84.77-70.613,88.219-101.5,1.5-13.436-3.45-29.455-11.688-37.688-12.023-12.016-36.325-15.28-52.281-7.0312-13.546,7.003-21.212,21.243-20.344,37.781,0.539,10.272,2.86,18.752,10.719,23.75l4.8438,4.3438-8.125,10.156c-4.4746,5.5898-8.5641,10.166-9.0626,10.188-0.4984,0.0209-4.546-3.6812-9-8.2188-13.025-13.27-17.875-24.85-17.875-42.75,0-25.742,13.878-47.421,37.781-59.031,10.777-5.2351,18.698-6.9195,32.312-6.9375zm157.94,0.125c0.7771-0.015,1.5631-0.01,2.3437,0,5.7641,0.0762,11.605,0.8508,17.406,2.375,16.491,4.332,32.546,16.83,39.25,30.562,10.464,21.437,2.9613,46.162-17.594,57.938-3.3474,1.9178-6.109,3.7862-6.125,4.1562-0.016,0.3696,1.6561,1.2324,3.7187,1.9062,11.937,3.8999,26.149,16.024,31.625,26.969,5.8432,11.68,7.1858,29.377,3.1875,42.25-6.217,20.016-24.212,36.582-46.719,43.031-10.312,2.9552-26.942,4.3682-35.844,3.0312-25.242-3.791-43.38-13.726-54.219-29.688-11.484-16.91-13.754-39.659-5.6563-56.781,5.0481-10.675,22.441-25.991,32.312-28.469,4.1245-1.0352,3.9417-2.186-0.6562-4.5312-6.339-3.2329-16.922-14.386-20.344-21.406-2.7382-5.6191-2.9375-6.7444-2.9375-18.031,0-11.93,0.037-12.144,3.7813-19.719,10.149-20.536,32.377-33.128,56.469-33.594zm0,23.812c-8.4074,0.2396-16.594,3.3978-23.125,9.2188-12.52,11.159-13.77,26.751-3.0937,38.625,9.842,10.946,26.223,14.547,41.125,9.0312,25.792-9.5471,27.394-40.822,2.7187-52.969-5.1171-2.519-10.542-3.8102-15.938-3.9062-0.5619-0.01-1.1271-0.016-1.6875,0zm1.7187,85.062c-14.316-0.022-27.03,4.8943-36.344,14.062-7.583,7.464-9.625,12.492-9.625,23.906,0,11.461,2.0186,16.396,9.9063,24.375,11.983,12.123,31.275,17.384,47.969,13.062,9.6779-2.5052,16.666-6.3368,22.75-12.406,9.4178-9.396,12.877-19.274,10.75-30.781-1.4379-7.7759-4.1916-12.746-10.438-18.844-9.044-8.8295-20.879-13.354-34.969-13.375z" transform="translate(-1171.3501,-7150.6508)"/>
</g>
<g transform="translate(-3582.9988,6874.4176)" fill="#f35844">
<path d="m4136.8-6531.5,0.3437,111.75c0.3741,125.19-0.1264,116.82,7.7813,132.84,9.5902,19.434,26.086,32.891,47.031,38.375,9.1378,2.3927,25.452,2.6267,35.344,0.5312,7.7219-1.6358,19.974-7.5006,27.969-13.406,13.558-10.016,24.816-28.023,28.188-45.063,3.2033-16.191,0.1752-38.671-7.2188-53.312-7.5876-15.025-17.504-24.439-31.875-30.25-5.9964-2.4249-8.4338-2.8172-17-2.875-8.5456-0.058-14.51,2.9567-18.188,4.75-5.8272,2.8419-8.3392,5.118-17.281,12.75,0,0,9.2526,14.092,14.063,20.531,0,0,8.9856-8.3719,19.781-8.4062,13.12,0.9782,15.648,5.5749,20.219,10.469,7.3733,6.6613,11.906,19.128,11.906,32.625,0,19.03-10.582,35.1-28.531,43.344-7.6607,3.5185-20.346,4.4159-28.656,2-15.473-4.498-28.276-16.841-32.906-31.719-1.8105-5.8182,0-10.946-1.9062-115.5v-109.44h-14.531zm312.06,0,0,123.97c0,88.623,0.3453,125.46,1.1562,129.25,1.4936,6.979,5.1602,14.659,9.4376,19.656,3.4471,4.0274,15.428,11.156,17.219,11.156,3.8887,1.1722,5.9624,1.6493,12.188,0.4688,0-21.685-0.1562-9.6187-0.1562-26-7.3703-2.2014-10.605-8.1328-10.875-10.156l-0.4688-3.3438-0.25-122.25-0.2812-122.75h-13.969zm-723.22,136.81c-0.7272,0.019-1.4478,0.5313-2.6562,1.1563-4.7119,2.4364-13.45,10.956-16.406,16-3.4628,5.9086-5.5391,14.544-5.5,22.906,0.055,11.791,2.492,16.776,18.844,38.531,9.3173,12.396,11.442,16.915,11.469,24.5,0.023,6.6455-1.0867,9.4217-5.6874,14.281-7.4663,7.8863-20.767,7.3642-32.844-1.3125l-4.8125-3.4375v14.031,14.062l5.4375,2.4688c2.9846,1.3663,7.372,2.8756,9.75,3.3438,2.3781,0.4677,8.9147,0.9087,14.531,0.9687,8.0363,0.086,11.339-0.3139,15.5-1.9063,19.342-7.4024,29.911-27.625,25.813-49.344-1.5046-7.9735-6.7374-17.521-17.813-32.438-9.3599-12.606-11.046-15.64-11.875-21.688-1.0259-7.4847,3.1544-15.311,11.094-20.875,1.8157-1.2724,1.5416-1.8215-4.9375-10.25-6.7029-8.72-8.3062-11.042-9.9062-11zm812.91,0.5936c-0.7272,0.019-1.4478,0.5314-2.6563,1.1564-4.7118,2.4366-13.45,10.956-16.406,16-3.4628,5.9087-5.539,14.544-5.5,22.906,0.055,11.791,2.492,16.776,18.844,38.531,9.3173,12.396,11.442,16.915,11.469,24.5,0.023,6.6453-1.0867,9.4217-5.6875,14.281-7.4662,7.8866-20.767,7.3642-32.844-1.3123l-4.8124-3.4377v14.031,14.062l5.4374,2.4688c2.9846,1.3663,7.3721,2.8756,9.75,3.3437,2.3781,0.4678,8.9147,0.9088,14.531,0.9687,8.0362,0.086,11.339-0.3138,15.5-1.9062,19.342-7.4025,29.91-27.625,25.812-49.344-1.5045-7.9735-6.7373-17.52-17.812-32.437-9.36-12.606-11.046-15.64-11.875-21.688-1.0259-7.4844,3.1543-15.311,11.094-20.875,1.8158-1.2722,1.5417-1.8212-4.9374-10.25-6.703-8.7199-8.3064-11.042-9.9063-11zm-172.09,1.3127c-11.997,0.056-24.195,2.9483-34.844,8.5312-9.5701,5.0176-22.215,16.987-27.5,26-18.548,31.632-13.388,68.752,12.938,93.125,8.1362,7.5328,21.92,14.915,31.969,17.094,9.8204,2.1292,26.12,1.9133,35.313-0.4376,12.524-3.2029,22.807-9.1732,32.719-19,14.105-13.983,20.679-28.523,21.656-48.031,0.8523-17.013-2.9842-31.013-12.375-45.188-8.5826-12.956-24.063-24.528-38.875-29.094-6.6728-2.0566-13.802-3.0335-21-3zm-297.03,0.031c-5.4826-0.02-10.834,0.6991-15.438,2.25-11.441,3.8542-20.553,11.254-26.594,21.562-2.4886,4.2466-2.9384,4.5854-3.875,2.9688-8.9899-15.517-22.422-24.548-39.187-26.344-16.292-1.7456-26.875,2.2625-37.156,12.5-3.2138,3.2-6.568,6.9375-7.4687,8.3125-1.5744,2.4033-1.6365,2.1037-1.6876-7.75l-0.062-10.25h-14-14v70,70h14,14v-40.531c0-45.577,0.4701-49.874,6.625-60.125,4.5218-7.532,7.404-10.486,13.344-13.719,13.562-7.3813,28.832-4.4394,36.969,6.625,6.3601,8.6483,6.4646,9.4325,6.8438,61l0.3438,46.75h13.937,13.938l0.031-40.25c-2.1689-44.024,0.5341-49.394,5.6875-59,7.5691-14.109,19.23-21.276,33.719-18.688,11.025,1.9693,17.561,7.4109,21.844,18.156,1.9535,4.901,2.1376,7.8179,2.6875,38.281,0.5506,30.496,0.7886,33.454,2.7813,38.812,4.0464,10.884,13.188,20.621,22.75,24.188,2.9569,1.1033,4.2959,1.3987,13.25,1.1562,0-25.759-0.063-11.574-0.063-27-4.1621-1.7391-8.301-6.67-9.625-11.437-0.5979-2.1529-1.0624-15.617-1.0624-32-0.01-31.454-0.8264-37.863-6.25-48.656-3.5812-7.1262-13.2-16.986-20.313-20.781-7.2879-3.8889-16.831-5.9972-25.969-6.0313zm-297.47,3.25,0,48.469c0,31.268,0.3857,50.33,1.0937,53.75,5.5052,26.594,31.651,45.126,57.906,41.062,10.998-1.7023,19.156-6.0912,27.687-14.875l7.3126-7.5313v24.313c0,27.748-1.0563,35.031-6.2188,43.625-1.796,2.9899-5.3063,7.2248-7.7812,9.4375-4.6305,4.1397-17.154,8.733-20.25,8.75-0.9626,0.01-1.75,0.4064-1.75,0.875,0,0.8528,12.514,21.554,13.562,23.25,0.7137,1.1545,0.9467,1.1286,7.0626-0.5,17.882-4.7611,33.828-21.345,40.312-41.969l2.5626-8.1562,0.2812-90.25,0.2812-90.25h-13.937-13.969l-0.4062,42.25c1.6476,43.912-0.5845,45.469-5.0626,55.75-4.1264,9.4745-11.978,16.542-21.625,19.406-16.616,4.9345-31.584-2.6309-36.844-18.656-2.1663-6.5995-2.2187-7.9355-2.2187-52.75v-46h-14zm592.47,21.594c7.0827-0.029,9.8604,0.4483,14.438,1.7811,23.446,8.2822,30.394,23.424,33.688,32.906,0.1719,0.1718,0.8726,3.5747,1.5313,7.5626,4.1095,24.885-14.525,50.017-40.125,54.125,0,0-8.5355,1.1551-15,0.031-28.402-4.9371-46.235-32.073-39.063-59.406,2.4098-9.1824,5.6561-15.166,11.844-21.781,7.6427-8.1708,17.952-13.488,29.375-15.188,1.2053-0.023,2.3007-0.027,3.3125-0.031z"/>
<path d="m4523.8,618.88,0,294.28,321.5,0,0-294.28-321.5,0zm79.094,73.094c14.818-0.0189,24.443,2.0362,36.188,7.6875,16.289,7.838,27.717,21.782,32.531,39.781,2.5529,9.544,3.0488,27.474,1.0624,37.531-2.179,11.031-12.018,31.283-20.969,43.094-12.145,16.026-28.918,32.151-45.969,44.25l-5.8126,4.125,8.8126,0.65625c6.119,0.4523,12.227,1.7812,19.844,4.3125,18.245,6.0627,31.243,5.7654,44.656-1.0312,2.6334-1.3345,5.0192-2.4375,5.3124-2.4375,0.2934,0,0.5313,6.274,0.5313,13.906v13.875l-5.125,2.1875c-8.485,3.65-18.335,5.2812-28.875,4.7812-8.226-0.3902-11.712-1.1878-26-6.0312-26.029-8.8239-36.385-8.6675-55.094,0.9375-5.169,2.6539-9.6986,4.9838-10.063,5.1562-0.3638,0.172-3.6309-5.233-7.25-12-6.0734-11.357-6.42-12.398-4.8124-13.594,0.958-0.713,7.945-5.3286,15.531-10.25,53.662-34.812,84.77-70.613,88.219-101.5,1.5-13.436-3.45-29.455-11.688-37.688-12.023-12.016-36.325-15.28-52.281-7.0312-13.546,7.003-21.212,21.243-20.344,37.781,0.539,10.272,2.86,18.752,10.719,23.75l4.8438,4.3438-8.125,10.156c-4.4746,5.5898-8.5641,10.166-9.0626,10.188-0.4984,0.0209-4.546-3.6812-9-8.2188-13.025-13.27-17.875-24.85-17.875-42.75,0-25.742,13.878-47.421,37.781-59.031,10.777-5.2351,18.698-6.9195,32.312-6.9375zm157.94,0.125c0.7771-0.015,1.5631-0.01,2.3437,0,5.7641,0.0762,11.605,0.8508,17.406,2.375,16.491,4.332,32.546,16.83,39.25,30.562,10.464,21.437,2.9613,46.162-17.594,57.938-3.3474,1.9178-6.109,3.7862-6.125,4.1562-0.016,0.3696,1.6561,1.2324,3.7187,1.9062,11.937,3.8999,26.149,16.024,31.625,26.969,5.8432,11.68,7.1858,29.377,3.1875,42.25-6.217,20.016-24.212,36.582-46.719,43.031-10.312,2.9552-26.942,4.3682-35.844,3.0312-25.242-3.791-43.38-13.726-54.219-29.688-11.484-16.91-13.754-39.659-5.6563-56.781,5.0481-10.675,22.441-25.991,32.312-28.469,4.1245-1.0352,3.9417-2.186-0.6562-4.5312-6.339-3.2329-16.922-14.386-20.344-21.406-2.7382-5.6191-2.9375-6.7444-2.9375-18.031,0-11.93,0.037-12.144,3.7813-19.719,10.149-20.536,32.377-33.128,56.469-33.594zm0,23.812c-8.4074,0.2396-16.594,3.3978-23.125,9.2188-12.52,11.159-13.77,26.751-3.0937,38.625,9.842,10.946,26.223,14.547,41.125,9.0312,25.792-9.5471,27.394-40.822,2.7187-52.969-5.1171-2.519-10.542-3.8102-15.938-3.9062-0.5619-0.01-1.1271-0.016-1.6875,0zm1.7187,85.062c-14.316-0.022-27.03,4.8943-36.344,14.062-7.583,7.464-9.625,12.492-9.625,23.906,0,11.461,2.0186,16.396,9.9063,24.375,11.983,12.123,31.275,17.384,47.969,13.062,9.6779-2.5052,16.666-6.3368,22.75-12.406,9.4178-9.396,12.877-19.274,10.75-30.781-1.4379-7.7759-4.1916-12.746-10.438-18.844-9.044-8.8295-20.879-13.354-34.969-13.375z" transform="translate(-1171.3501,-7150.6508)"/>
</g>
</g>
</svg>
